<?xml version="1.0" encoding="utf-8"?>
<!-- Generator: Adobe Illustrator 19.0.0, SVG Export Plug-In . SVG Version: 6.00 Build 0)  -->
<svg version="1.1" id="Layer_1" xmlns="http://www.w3.org/2000/svg" xmlns:xlink="http://www.w3.org/1999/xlink" x="0px" y="0px"
	 viewBox="0 0 20 20" enable-background="new 0 0 20 20" xml:space="preserve">
<g class="svg-color">
	<path  d="M9.5,11C6.467,11,4,8.533,4,5.5S6.467,0,9.5,0S15,2.467,15,5.5S12.533,11,9.5,11z M9.5,1C7.019,1,5,3.019,5,5.5
	S7.019,10,9.5,10c2.481,0,4.5-2.019,4.5-4.5S11.981,1,9.5,1z"/>
<path class="svg-color-2" d="M17.5,20h-16C0.673,20,0,19.327,0,18.5c0-0.068,0.014-1.686,1.225-3.3c0.705-0.94,1.67-1.687,2.869-2.22
	C5.558,12.33,7.377,12,9.5,12s3.941,0.33,5.406,0.981c1.199,0.533,2.164,1.279,2.869,2.22C18.986,16.814,19,18.432,19,18.5
	C19,19.327,18.327,20,17.5,20z M9.5,13c-3.487,0-6.06,0.953-7.441,2.756C1.024,17.107,1.001,18.488,1,18.502
	C1,18.775,1.224,19,1.5,19h16c0.275,0,0.5-0.225,0.5-0.5c0-0.012-0.023-1.393-1.059-2.744C15.559,13.953,12.986,13,9.5,13z"/>
</g>
</svg>
