<svg id="Layer_1" data-name="Layer 1" xmlns="http://www.w3.org/2000/svg" viewBox="0 0 54 54"><defs><style>.cls-1{fill:#eb5f54;}</style></defs><title>icon</title><path class="cls-1" d="M49,5H42V3a3,3,0,0,0-3-3H38a3,3,0,0,0-3,3V5H19V3a3,3,0,0,0-3-3H15a3,3,0,0,0-3,3V5H5a5,5,0,0,0-5,5V49a5,5,0,0,0,5,5H49a5,5,0,0,0,5-5V10A5,5,0,0,0,49,5ZM5,7h7V9a3,3,0,0,0,3,3h3a1,1,0,0,0,0-2H15a1,1,0,0,1-1-1V3a1,1,0,0,1,1-1h1a1,1,0,0,1,1,1V5a1,1,0,0,0,0,2H35V9a3,3,0,0,0,3,3h3a1,1,0,0,0,0-2H38a1,1,0,0,1-1-1V3a1,1,0,0,1,1-1h1a1,1,0,0,1,1,1V5a1,1,0,0,0,0,2h9a3,3,0,0,1,3,3v8H2V10A3,3,0,0,1,5,7ZM49,52H5a3,3,0,0,1-3-3V20H52V49A3,3,0,0,1,49,52Z"/><path class="cls-1" d="M26,39.33a1,1,0,0,1,1-1,1,1,0,0,1,0,2.06A1,1,0,0,1,26,39.33ZM26.44,37L26.2,29H27.8l-0.23,8H26.44Z"/><path class="cls-1" d="M27,45.69a3.23,3.23,0,0,1-2.82-1.63L16,29.82a3.26,3.26,0,0,1,2.82-4.89H35.23A3.26,3.26,0,0,1,38,29.82L29.82,44.06A3.23,3.23,0,0,1,27,45.69ZM18.77,26.93a1.26,1.26,0,0,0-1.09,1.89l8.23,14.25a1.26,1.26,0,0,0,2.18,0l8.23-14.25a1.26,1.26,0,0,0-1.09-1.89H18.77Z"/></svg>