<?xml version="1.0" encoding="UTF-8" standalone="no"?>
<svg width="28px" height="33px" viewBox="0 0 28 33" version="1.1" xmlns="http://www.w3.org/2000/svg" xmlns:xlink="http://www.w3.org/1999/xlink">
    <!-- Generator: Sketch 3.7.2 (28276) - http://www.bohemiancoding.com/sketch -->
    <title>icon-lock</title>
    <desc>Created with Sketch.</desc>
    <defs></defs>
    <g id="Home" stroke="none" stroke-width="1" fill="none" fill-rule="evenodd">
        <g transform="translate(-643.000000, -1280.000000)" id="What's-the-Dark-Web-Copy" fill="#30383B">
            <g transform="translate(74.000000, 825.000000)">
                <g id="Security-Button" transform="translate(558.000000, 448.000000)">
                    <g id="icon-lock" transform="translate(11.000000, 7.000000)">
                        <path d="M5.79911111,15.2008889 C5.76177778,15.2071111 5.73066667,15.2133333 5.69333333,15.2133333 L3.72711111,15.2133333 L3.72711111,15.2133333 L3.64622222,15.2133333 L3.56533333,15.2195556 L3.528,15.2195556 L2.42044444,15.2195556 L2.41422222,15.2195556 C2.02844444,15.2817778 1.68622222,15.4622222 1.42488889,15.7297778 L1.42488889,15.7297778 C1.09511111,16.0533333 0.896,16.5013333 0.896,16.9928889 L0.896,30.0782222 C0.896,30.576 1.09511111,31.024 1.42488889,31.3475556 C1.74844444,31.6711111 2.19644444,31.8764444 2.69422222,31.8764444 L24.7395556,31.8764444 C25.2311111,31.8764444 25.6791111,31.6773333 26.0026667,31.3475556 L26.0026667,31.3475556 C26.3262222,31.024 26.5315556,30.576 26.5315556,30.0782222 L26.5315556,16.9928889 C26.5315556,16.5013333 26.3262222,16.0533333 26.0026667,15.7297778 C25.7413333,15.4622222 25.3928889,15.2817778 25.0133333,15.2195556 L21.7466667,15.2195556 C21.6968889,15.2195556 21.6471111,15.2133333 21.6035556,15.2008889 L5.79911111,15.2008889 Z M6.13511111,14.3048889 L21.2986667,14.3048889 L21.2986667,11.7475556 C21.2986667,10.7271111 21.0933333,9.75022222 20.7262222,8.85422222 C20.3404444,7.92711111 19.7742222,7.09333333 19.0773333,6.39022222 C18.3742222,5.69333333 17.5404444,5.12711111 16.6133333,4.74133333 C15.7173333,4.368 14.7404444,4.16266667 13.72,4.16266667 C12.6995556,4.16266667 11.7226667,4.368 10.8328889,4.74133333 C9.90577778,5.12711111 9.06577778,5.68711111 8.36266667,6.39022222 C7.66577778,7.08711111 7.09955556,7.92088889 6.71377778,8.848 C6.34044444,9.744 6.13511111,10.7208889 6.13511111,11.7413333 L6.13511111,14.3048889 Z M2.86844444,14.3048889 L5.24533333,14.3048889 L5.24533333,11.7413333 C5.24533333,10.5964444 5.47555556,9.50133333 5.88622222,8.50577778 C6.32177778,7.47288889 6.95022222,6.53955556 7.73422222,5.75555556 C8.51822222,4.97155556 9.45155556,4.34311111 10.4844444,3.91377778 C11.4862222,3.49688889 12.5751111,3.27288889 13.72,3.27288889 C14.8648889,3.27288889 15.96,3.49688889 16.9555556,3.91377778 C17.9946667,4.34933333 18.9217778,4.97777778 19.712,5.76177778 C20.4897778,6.54577778 21.1182222,7.47911111 21.5475556,8.512 C21.9644444,9.50755556 22.1884444,10.6026667 22.1884444,11.7475556 L22.1884444,14.3048889 L24.5653333,14.3048889 L24.5653333,11.7537778 C24.5653333,10.2853333 24.2728889,8.88533333 23.744,7.60977778 C23.1964444,6.27822222 22.3875556,5.08355556 21.3857778,4.08177778 C20.384,3.08 19.1893333,2.27111111 17.864,1.71733333 C16.5822222,1.18844444 15.1884444,0.896 13.7262222,0.896 C12.264,0.896 10.8577778,1.18844444 9.58222222,1.71733333 C8.25688889,2.27111111 7.056,3.07377778 6.05422222,4.07555556 C5.05244444,5.07733333 4.24977778,6.272 3.696,7.59733333 C3.16088889,8.87911111 2.86844444,10.2791111 2.86844444,11.7413333 L2.86844444,14.3048889 Z M15.3128889,19.4195556 C14.9022222,19.0088889 14.336,18.7537778 13.7137778,18.7537778 C13.0915556,18.7537778 12.5191111,19.0088889 12.1146667,19.4195556 C11.704,19.824 11.4488889,20.3902222 11.4488889,21.0186667 C11.4488889,21.3857778 11.5422222,21.7404444 11.6977778,22.0515556 C11.8657778,22.3751111 12.1084444,22.6488889 12.4008889,22.8604444 C12.5128889,22.9413333 12.5875556,23.072 12.5875556,23.2275556 L12.5813333,27.2346667 C12.5813333,27.4213333 12.6622222,27.5893333 12.7866667,27.7137778 C12.9048889,27.8382222 13.0728889,27.9128889 13.2595556,27.9128889 L14.1617778,27.9128889 C14.3484444,27.9128889 14.5164444,27.8382222 14.6408889,27.7137778 C14.7591111,27.5893333 14.8337778,27.4213333 14.8337778,27.2346667 L14.8337778,27.2346667 L14.8337778,23.2462222 C14.8337778,23.1031111 14.896,22.9537778 15.0266667,22.8604444 C15.3191111,22.6551111 15.5617778,22.3751111 15.7235556,22.0515556 C15.8853333,21.7404444 15.9786667,21.392 15.9786667,21.0186667 C15.9786667,20.3964444 15.7235556,19.824 15.3128889,19.4195556 L15.3128889,19.4195556 Z M13.7137778,17.864 C12.8426667,17.8577778 12.0524444,18.2124444 11.48,18.7848889 C10.9075556,19.3511111 10.5528889,20.1475556 10.5528889,21.0186667 C10.5528889,21.5351111 10.6835556,22.0328889 10.9075556,22.4622222 C11.1004444,22.8417778 11.368,23.1777778 11.6915556,23.4453333 L11.6915556,27.2346667 C11.6915556,27.6702222 11.8657778,28.0622222 12.152,28.3422222 C12.4382222,28.6284444 12.8302222,28.8088889 13.2595556,28.8088889 L13.2595556,28.8026667 L14.1617778,28.8088889 C14.5911111,28.8088889 14.9893333,28.6284444 15.2693333,28.3484444 C15.5555556,28.0622222 15.7297778,27.6702222 15.7297778,27.2346667 L15.7297778,27.2346667 L15.7297778,23.4453333 C16.0533333,23.1777778 16.3271111,22.8417778 16.52,22.4622222 C16.744,22.0328889 16.8684444,21.5413333 16.8684444,21.0186667 C16.8684444,20.1475556 16.52,19.3573333 15.9475556,18.7848889 C15.3751111,18.2124444 14.5848889,17.864 13.7137778,17.864 L13.7137778,17.864 Z M24.7395556,32.7724444 L2.69422222,32.7724444 C1.94755556,32.7724444 1.27555556,32.4675556 0.790222222,31.9822222 C0.298666667,31.4968889 0,30.8248889 0,30.0782222 L0,16.9928889 C0,16.2524444 0.298666667,15.5804444 0.790222222,15.0951111 L0.790222222,15.0951111 L0.796444444,15.0888889 C1.12,14.7653333 1.52444444,14.5288889 1.97244444,14.3982222 L1.97866667,11.7413333 C1.97866667,10.1484444 2.28977778,8.63644444 2.86844444,7.25511111 C3.46577778,5.81777778 4.34311111,4.52355556 5.42577778,3.44088889 C6.50844444,2.35822222 7.80266667,1.48711111 9.24,0.889777778 C10.6213333,0.317333333 12.1333333,0 13.7262222,0 C15.3128889,0 16.8248889,0.317333333 18.2062222,0.896 C19.6435556,1.49333333 20.9377778,2.36444444 22.0204444,3.45333333 C23.1031111,4.536 23.9804444,5.83022222 24.5715556,7.26133333 C25.144,8.64888889 25.4613333,10.1608889 25.4613333,11.7537778 L25.4613333,14.4044444 C25.9093333,14.5288889 26.3137778,14.7715556 26.6373333,15.0951111 C27.1226667,15.5804444 27.4275556,16.2524444 27.4275556,16.9928889 L27.4275556,30.0782222 C27.4275556,30.8186667 27.1226667,31.4906667 26.6373333,31.9822222 L26.6373333,31.9822222 C26.152,32.4675556 25.4737778,32.7724444 24.7395556,32.7724444 L24.7395556,32.7724444 Z" id="Fill-1"></path>
                    </g>
                </g>
            </g>
        </g>
    </g>
</svg>