<svg id="Layer_1" data-name="Layer 1" xmlns="http://www.w3.org/2000/svg" viewBox="0 0 53.54 53.26"><defs><style>.cls-1{fill:#eb5f54;}</style></defs><title>icon</title><path class="cls-1" d="M40,20A20,20,0,1,0,20,40,20,20,0,0,0,40,20ZM20,38A18,18,0,1,1,38,20,18,18,0,0,1,20,38Z"/><path class="cls-1" d="M16.44,6.46A14,14,0,0,0,7.87,27a1,1,0,0,0,.87.5A1,1,0,0,0,9.6,26a12,12,0,0,1,7.34-17.6A1,1,0,0,0,16.44,6.46Z"/><path class="cls-1" d="M52.43,45.79L41,34.31a3.08,3.08,0,0,0-4.24,0l-2.12,2.12a3,3,0,0,0,0,4.24L46.07,52.15a4.09,4.09,0,0,0,2.85,1.11,3.7,3.7,0,0,0,1.5-.31l0.17-.08,2.57-2.57,0.08-.17A4.14,4.14,0,0,0,52.43,45.79Zm-1,3.39-2,2a2.25,2.25,0,0,1-2-.45L36,39.26a1,1,0,0,1,0-1.41l2.12-2.12a1,1,0,0,1,1.41,0L51,47.21A2.17,2.17,0,0,1,51.46,49.18Z"/></svg>