<?xml version="1.0" encoding="utf-8"?>
<!-- Generator: Adobe Illustrator 19.0.0, SVG Export Plug-In . SVG Version: 6.00 Build 0)  -->
<svg version="1.1" id="Layer_1" xmlns="http://www.w3.org/2000/svg" xmlns:xlink="http://www.w3.org/1999/xlink" x="0px" y="0px"
	 viewBox="0 0 20 20" enable-background="new 0 0 20 20" xml:space="preserve">
				<path class="svg-color" d="M9.5,20c-0.053,0-0.107-0.009-0.158-0.025c-1.839-0.613-4.147-2.651-5.88-5.193C1.883,12.465,0,8.627,0,3.499
				c0-0.276,0.224-0.5,0.5-0.5c2.814,0,7.238-1.926,8.723-2.916c0.168-0.112,0.387-0.112,0.555,0c1.486,0.99,5.91,2.916,8.723,2.916
				c0.276,0,0.5,0.224,0.5,0.5c0,5.128-1.883,8.965-3.462,11.282c-1.733,2.541-4.041,4.58-5.88,5.193C9.608,19.991,9.554,20,9.501,20
				H9.5z M1.006,3.984c0.113,4.631,1.832,8.108,3.282,10.235c1.769,2.594,3.856,4.231,5.212,4.752c1.356-0.521,3.443-2.156,5.212-4.752
				c1.45-2.127,3.169-5.604,3.282-10.235c-1.628-0.102-3.441-0.662-4.73-1.14C11.846,2.319,10.415,1.651,9.5,1.093
				C8.585,1.651,7.154,2.319,5.736,2.844C4.447,3.321,2.634,3.882,1.006,3.984z"/>
				<path class="svg-color-2"  d="M8.5,12.5c-0.128,0-0.256-0.049-0.354-0.146l-2-2c-0.195-0.195-0.195-0.512,0-0.707c0.195-0.195,0.512-0.195,0.707,0
				l1.646,1.646l4.646-4.646c0.195-0.195,0.513-0.195,0.707,0c0.195,0.195,0.195,0.512,0,0.707l-4.999,5
				C8.754,12.452,8.626,12.5,8.498,12.5H8.5z"/>
</svg>
