<?xml version="1.0" encoding="utf-8"?>
<svg xmlns="http://www.w3.org/2000/svg" xmlns:xlink="http://www.w3.org/1999/xlink">
	<symbol id="account" viewBox="0 0 20 20" >
			<path  class="svg-color" d="M9.5,11C6.467,11,4,8.533,4,5.5S6.467,0,9.5,0S15,2.467,15,5.5S12.533,11,9.5,11z M9.5,1C7.019,1,5,3.019,5,5.5
			S7.019,10,9.5,10c2.481,0,4.5-2.019,4.5-4.5S11.981,1,9.5,1z"/>
		<path class="svg-color-2" d="M17.5,20h-16C0.673,20,0,19.327,0,18.5c0-0.068,0.014-1.686,1.225-3.3c0.705-0.94,1.67-1.687,2.869-2.22
			C5.558,12.33,7.377,12,9.5,12s3.941,0.33,5.406,0.981c1.199,0.533,2.164,1.279,2.869,2.22C18.986,16.814,19,18.432,19,18.5
			C19,19.327,18.327,20,17.5,20z M9.5,13c-3.487,0-6.06,0.953-7.441,2.756C1.024,17.107,1.001,18.488,1,18.502
			C1,18.775,1.224,19,1.5,19h16c0.275,0,0.5-0.225,0.5-0.5c0-0.012-0.023-1.393-1.059-2.744C15.559,13.953,12.986,13,9.5,13z"/>
	</symbol>
	<symbol id="report" viewBox="0 0 20 20">
				<path class="svg-color" d="M9.5,20c-0.053,0-0.107-0.009-0.158-0.025c-1.839-0.613-4.147-2.651-5.88-5.193C1.883,12.465,0,8.627,0,3.499
				c0-0.276,0.224-0.5,0.5-0.5c2.814,0,7.238-1.926,8.723-2.916c0.168-0.112,0.387-0.112,0.555,0c1.486,0.99,5.91,2.916,8.723,2.916
				c0.276,0,0.5,0.224,0.5,0.5c0,5.128-1.883,8.965-3.462,11.282c-1.733,2.541-4.041,4.58-5.88,5.193C9.608,19.991,9.554,20,9.501,20
				H9.5z M1.006,3.984c0.113,4.631,1.832,8.108,3.282,10.235c1.769,2.594,3.856,4.231,5.212,4.752c1.356-0.521,3.443-2.156,5.212-4.752
				c1.45-2.127,3.169-5.604,3.282-10.235c-1.628-0.102-3.441-0.662-4.73-1.14C11.846,2.319,10.415,1.651,9.5,1.093
				C8.585,1.651,7.154,2.319,5.736,2.844C4.447,3.321,2.634,3.882,1.006,3.984z"/>
				<path class="svg-color-2"  d="M8.5,12.5c-0.128,0-0.256-0.049-0.354-0.146l-2-2c-0.195-0.195-0.195-0.512,0-0.707c0.195-0.195,0.512-0.195,0.707,0
				l1.646,1.646l4.646-4.646c0.195-0.195,0.513-0.195,0.707,0c0.195,0.195,0.195,0.512,0,0.707l-4.999,5
				C8.754,12.452,8.626,12.5,8.498,12.5H8.5z"/>
	</symbol>
</svg>
