<?xml version="1.0" encoding="UTF-8" standalone="no"?>
<svg width="27px" height="27px" viewBox="0 0 27 27" version="1.1" xmlns="http://www.w3.org/2000/svg" xmlns:xlink="http://www.w3.org/1999/xlink">
    <!-- Generator: Sketch 3.7.2 (28276) - http://www.bohemiancoding.com/sketch -->
    <title>icon-search</title>
    <desc>Created with Sketch.</desc>
    <defs></defs>
    <g id="Home" stroke="none" stroke-width="1" fill="none" fill-rule="evenodd">
        <g id="BLOG" transform="translate(-376.000000, -134.000000)" fill="#D25650">
            <path d="M390.448958,137.466796 C391.478983,137.895973 392.404097,138.520664 393.176616,139.293183 L393.181385,139.293183 C393.953903,140.065701 394.578594,140.995585 395.003002,142.020841 C395.413105,143.012716 395.641999,144.099965 395.641999,145.234899 C395.641999,146.374603 395.413105,147.457082 395.003002,148.448958 C394.578594,149.483751 393.953903,150.404097 393.181385,151.181385 C392.404097,151.953903 391.478983,152.578594 390.448958,153.007771 C389.457082,153.417874 388.369834,153.641999 387.234899,153.641999 C386.099965,153.641999 385.012716,153.417874 384.020841,153.007771 C382.990816,152.578594 382.065701,151.953903 381.288414,151.181385 L381.293183,151.181385 C380.515895,150.408866 379.891205,149.483751 379.466796,148.448958 C379.056694,147.461851 378.827799,146.374603 378.827799,145.234899 C378.827799,144.099965 379.056694,143.012716 379.466796,142.020841 C379.891205,140.990816 380.515895,140.065701 381.288414,139.293183 C382.065701,138.520664 382.990816,137.895973 384.020841,137.466796 C385.012716,137.056694 386.099965,136.832568 387.234899,136.832568 C388.369834,136.832568 389.457082,137.056694 390.448958,137.466796 L390.448958,137.466796 Z M393.229071,153.91858 L395.518015,151.767927 L395.49894,151.796538 L395.475097,151.820381 L395.432179,151.872836 L395.413105,151.89668 L395.39403,151.920523 L395.374956,151.944366 L395.370187,151.949135 L395.351113,151.972978 L395.332038,151.996821 L395.308195,152.025433 L395.293889,152.044507 L395.28912,152.049276 L395.270046,152.073119 L395.246203,152.096962 L395.227128,152.120805 L395.212822,152.13988 L395.203285,152.149417 C395.041152,152.335394 394.869481,152.521371 394.693041,152.693041 C394.24479,153.141293 393.758389,153.551395 393.238608,153.913811 L393.229071,153.91858 Z M401.912752,157.361533 L401.927058,157.380608 C402.184564,157.647651 402.313317,157.990993 402.313317,158.334334 C402.313317,158.687213 402.179795,159.040092 401.912752,159.307135 L401.307135,159.912752 L401.288061,159.927058 C401.025786,160.184564 400.677676,160.313317 400.334334,160.313317 C399.981455,160.313317 399.628576,160.179795 399.361533,159.912752 L393.801307,154.352526 C394.292476,153.999647 394.755034,153.608619 395.179442,153.184211 C395.60385,152.755034 395.999647,152.292476 396.352526,151.806076 L401.912752,157.361533 Z M395.518015,151.767927 L393.090781,154.013953 L393.086012,154.013953 L393.066937,154.028259 L393.066937,154.028259 L393.062169,154.028259 C391.393147,155.13935 389.390321,155.783116 387.234899,155.783116 C384.321265,155.783116 381.684211,154.605263 379.776757,152.693041 C377.869304,150.785588 376.686683,148.148534 376.686683,145.234899 C376.686683,142.321265 377.869304,139.684211 379.776757,137.776757 C381.684211,135.869304 384.321265,134.686683 387.234899,134.686683 C390.148534,134.686683 392.785588,135.869304 394.693041,137.776757 C396.600495,139.684211 397.783116,142.321265 397.783116,145.234899 C397.783116,147.390321 397.134581,149.397916 396.028259,151.066937 L396.018721,151.081243 C395.861356,151.319675 395.694454,151.548569 395.518015,151.767927 L395.518015,151.767927 Z M396.743554,151.224302 L402.399152,156.879901 L402.418227,156.898976 C402.804486,157.299541 402.995231,157.819322 402.995231,158.334334 L403,158.334334 C403,158.863652 402.799717,159.392971 402.399152,159.793536 L401.793536,160.399152 L401.769693,160.418227 C401.373896,160.804486 400.854115,161 400.334334,161 C399.805016,161 399.275698,160.799717 398.875132,160.399152 L393.219534,154.748322 C391.48852,155.840339 389.433239,156.474567 387.234899,156.474567 C384.130519,156.474567 381.321794,155.215648 379.290357,153.184211 C377.25415,151.148004 376,148.339279 376,145.234899 C376,142.135288 377.25415,139.326563 379.290357,137.290357 C381.321794,135.258919 384.130519,134 387.234899,134 C390.339279,134 393.148004,135.258919 395.179442,137.290357 C397.215648,139.326563 398.469799,142.135288 398.469799,145.234899 C398.469799,147.438008 397.83557,149.48852 396.743554,151.224302 L396.743554,151.224302 Z M392.694984,139.774815 C391.984458,139.064288 391.130872,138.492052 390.186683,138.101024 C389.280643,137.724302 388.283999,137.519251 387.234899,137.519251 C386.1858,137.519251 385.189156,137.724302 384.283116,138.101024 C383.338926,138.492052 382.49011,139.064288 381.774815,139.779583 C381.064288,140.49011 380.492052,141.338926 380.101024,142.283116 C379.724302,143.193924 379.514483,144.190569 379.514483,145.234899 C379.514483,146.283999 379.724302,147.280643 380.101024,148.191452 C380.492052,149.135641 381.064288,149.984458 381.774815,150.694984 L381.774815,150.694984 C382.49011,151.410279 383.338926,151.982515 384.283116,152.368774 C385.189156,152.750265 386.1858,152.955316 387.234899,152.955316 C388.283999,152.955316 389.280643,152.750265 390.191452,152.368774 C391.135641,151.982515 391.984458,151.410279 392.694984,150.694984 C393.40551,149.984458 393.977746,149.135641 394.368774,148.191452 C394.745496,147.280643 394.955316,146.283999 394.955316,145.234899 C394.955316,144.190569 394.745496,143.193924 394.368774,142.283116 C393.977746,141.338926 393.40551,140.49011 392.694984,139.774815 L392.694984,139.774815 Z" id="icon-search"></path>
        </g>
    </g>
</svg>