<svg id="Layer_1" data-name="Layer 1" xmlns="http://www.w3.org/2000/svg" viewBox="0 0 54.19 52.34"><defs><style>.cls-1{fill:#eb5f54;}.cls-2{fill:none;stroke:#eb5f54;stroke-miterlimit:10;stroke-width:2px;}</style></defs><title>feature-icons</title><path class="cls-1" d="M27.09,0C12.27,0,.12,10.13,0,22.59c-0.07,7.7,2.89,13.24,9.61,17.94l0.27,0.28c0.2,2.84-1.55,6.06-5.23,9.56l-0.26.25a1,1,0,0,0,.71,1.71H5.17c7.7-.6,15.55-6.26,16.95-7.31L22.73,45c0.89,0.12,3.44.36,4.36,0.36h0c14.94,0,27.09-10.21,27.09-22.66S42,0,27.09,0ZM27,43.19c-0.86,0-3.63-.2-4.14-0.29a1,1,0,0,0-.33,0l-1,.16a1,1,0,0,0-.46.2c-0.07.06-6.43,5-13.18,6.59,2.93-3.34,4.25-6.53,3.92-9.5a1,1,0,0,0-.06-0.24A2.9,2.9,0,0,0,10.93,39l-0.11-.09C4.57,34.58,1.94,29.7,2,22.61,2.11,11.24,13.36,2,27.09,2s25.09,9.24,25.09,20.6S40.93,43.19,27,43.19Z"/><path class="cls-2" d="M27.59,21.91a2.35,2.35,0,0,0-1.41,4.23V28.5a1.41,1.41,0,0,0,2.83,0V26.14A2.35,2.35,0,0,0,27.59,21.91Z"/><path class="cls-2" d="M36.07,18.14h-17a2.36,2.36,0,0,0-2.35,2.35V31.33a2.36,2.36,0,0,0,2.35,2.35h17a2.36,2.36,0,0,0,2.35-2.35V20.49A2.36,2.36,0,0,0,36.07,18.14ZM21,15.55a6.6,6.6,0,0,1,13.19,0v2.59H21V15.55Z"/></svg>