<svg id="Layer_1" data-name="Layer 1" xmlns="http://www.w3.org/2000/svg" viewBox="0 0 236.62 30.15"><defs><style>.cls-1{fill:#81bb41;}.cls-2{fill:#97d34a;}.cls-3{fill:#52c5d8;}.cls-4{fill:#3bafc9;}.cls-5{fill:#2999ba;}.cls-6{fill:#3daca3;}.cls-7{fill:#d1544e;}.cls-8{fill:#eb5f54;}</style></defs><title>logo</title><g id="Symbols"><g id="Menu-_-tabs_Menu-bar" data-name="Menu-&amp;-tabs/Menu-bar"><g id="logo"><path id="yourprivacyinsights" d="M42.15,6.33l4,13.59a1.75,1.75,0,0,1,.12.54,1.55,1.55,0,0,1-.21.63,5.28,5.28,0,0,1-1.23,1.74,5.92,5.92,0,0,1-1.95,1.23l1.2,3.39a7.81,7.81,0,0,0,3.33-2.31C49,23.25,50,20.4,50.7,17.64l3-11.31H49.86L48.63,14c-0.12.81-.24,1.65-0.36,2.4H48.21c-0.12-.78-0.24-1.59-0.39-2.46L46.38,6.33H42.15Zm18.12-.24c-2.91,0-5.67,2.34-5.67,7.62,0,4.77,2.1,7.53,5.61,7.53,2.22,0,5.61-1.5,5.61-7.62,0-4.62-2.1-7.53-5.55-7.53h0Zm0,3c1.32,0,1.65,2.55,1.65,4.56s-0.33,4.62-1.59,4.62-1.8-2.1-1.8-4.62c0-2,.3-4.56,1.74-4.56h0ZM78.78,6.33H74.85v9.36A2.94,2.94,0,0,1,74.61,17a1.39,1.39,0,0,1-1.26,1c-1.11,0-1.47-1.23-1.47-3.15V6.33h-4v8.88c0,4,1.14,6,3.93,6a4.14,4.14,0,0,0,3.39-1.8H75.3L75.51,21H78.9c-0.06-1.38-.12-2.91-0.12-4.47V6.33ZM81.57,21h4V13.56a6,6,0,0,1,.15-1.47,2.62,2.62,0,0,1,2.4-2.1,3.56,3.56,0,0,1,.84.06V6.15a3.31,3.31,0,0,0-.84-0.06,3.41,3.41,0,0,0-2.91,2.37H85.08L84.87,6.33H81.45c0.06,1.35.12,2.94,0.12,4.41V21Zm9.06,5.76h2.31v-7.2H93a2.74,2.74,0,0,0,2.52,1.68c2.28,0,4.5-2.16,4.5-7.53,0-4.77-1.68-7.47-4.2-7.47a3.32,3.32,0,0,0-3.06,2.1H92.7L92.58,6.48H90.51c0,1,.12,2.31.12,4.53V26.76ZM92.94,12A6.7,6.7,0,0,1,93,10.86c0.15-1.32,1.08-2.64,2.13-2.64,1.83,0,2.55,2.52,2.55,5.52s-0.6,5.58-2.52,5.58c-0.63,0-1.68-.39-2.13-2.46a4.88,4.88,0,0,1-.09-1.2V12Zm9.66,9h2.31V13a8.84,8.84,0,0,1,.09-1.32c0.24-1.68,1.32-3,2.79-3a2.42,2.42,0,0,1,.48,0V6.27c-0.15,0-.3,0-0.48,0a3.54,3.54,0,0,0-3.06,2.52h-0.06l-0.12-2.28h-2.07c0,1.08.12,2.52,0.12,3.75V21Zm9.78,0V6.48h-2.31V21h2.31Zm-1.2-19.77a1.39,1.39,0,0,0-1.35,1.5,1.36,1.36,0,0,0,1.32,1.5,1.35,1.35,0,0,0,1.41-1.5,1.36,1.36,0,0,0-1.38-1.5h0Zm3.18,5.25L118.14,21h2.07L124,6.48h-2.28l-1.8,8.16c-0.21,1.11-.45,2.34-0.6,3.54h-0.09c-0.18-1.26-.42-2.55-0.63-3.54l-1.83-8.16h-2.4ZM133.83,21a23,23,0,0,1-.15-3.3V11.43c0-3.27-1.26-5.19-4.17-5.19a6.25,6.25,0,0,0-3.39,1l0.51,1.62a4.37,4.37,0,0,1,2.4-.75c1.83,0,2.31,1.35,2.31,3.3v0.45c-3.27,0-6.18,1.65-6.18,5.28,0,2.49,1.5,4.14,3.45,4.14a3.26,3.26,0,0,0,2.88-1.77h0.09L131.73,21h2.1Zm-2.43-4.56a3.82,3.82,0,0,1-.06.81,2.31,2.31,0,0,1-2.16,2.19c-0.81,0-1.77-.69-1.77-2.58,0-3.15,2.79-3.36,4-3.36v2.94Zm12.3,2.43a4,4,0,0,1-1.68.39c-2.13,0-3.42-2-3.42-5.43,0-2.85,1-5.61,3.36-5.61a3.77,3.77,0,0,1,1.65.39l0.45-1.89a4.67,4.67,0,0,0-2-.45c-3.63,0-5.73,3.39-5.73,7.56,0,4.8,2.13,7.35,5.31,7.35a5,5,0,0,0,2.4-.54Zm1.05-12.39,3.66,13.41a1.66,1.66,0,0,1,.06.54,2,2,0,0,1-.15.72A8.88,8.88,0,0,1,147,23.58a7,7,0,0,1-2,1.83l0.84,2a8,8,0,0,0,2.61-2.22c1.71-2.19,2.7-5.7,3.6-9.36l2.37-9.33H152.1l-1.71,8.37c-0.24,1-.48,2.16-0.63,3H149.7c-0.18-.9-0.33-1.86-0.6-3l-1.92-8.34h-2.43ZM160.05,21V6.33h-3.93V21h3.93ZM158,0.3a2,2,0,0,0-2,2.13A2,2,0,0,0,158,4.56a2,2,0,0,0,2.07-2.13A2,2,0,0,0,158,.3h0ZM162.81,21h3.93V12.06a3.85,3.85,0,0,1,.21-1.35,1.59,1.59,0,0,1,1.47-1.32c1.14,0,1.44,1.17,1.44,2.43V21h3.93V11.58c0-3.27-1.11-5.49-3.9-5.49A4.21,4.21,0,0,0,166.32,8h-0.06l-0.18-1.68h-3.39c0,1.38.12,2.79,0.12,4.41V21Zm12.9-.66a6.46,6.46,0,0,0,3.36.84c3,0,5.19-1.62,5.19-4.62,0-1.68-.81-3.21-3-4.44-1.38-.81-1.71-1.17-1.71-1.83A1.29,1.29,0,0,1,181.05,9a4.07,4.07,0,0,1,2,.6l0.69-2.88a6.9,6.9,0,0,0-3-.66A4.52,4.52,0,0,0,176,10.71c0,1.35.57,2.88,3,4.23,1.29,0.75,1.71,1.23,1.71,2a1.32,1.32,0,0,1-1.59,1.32,5.49,5.49,0,0,1-2.64-.78ZM190.2,21V6.33h-3.93V21h3.93Zm-2-20.7a2,2,0,0,0-2,2.13,2,2,0,0,0,2,2.13,2,2,0,0,0,2.07-2.13,2,2,0,0,0-2-2.13h0Zm12.18,6L200.16,7.8H200.1a2.94,2.94,0,0,0-2.7-1.71c-2.73,0-4.95,2.82-4.95,7.71,0,3.51,1.29,7.11,4.59,7.11a3,3,0,0,0,2.64-1.47h0.06v0.9c0,2.25-.78,3.57-2.76,3.57a6.87,6.87,0,0,1-2.82-.63l-0.72,3a9.37,9.37,0,0,0,3.66.69,6.62,6.62,0,0,0,4.77-1.62c1.2-1.14,1.77-2.88,1.77-6V11c0-1.77.09-3.33,0.15-4.65h-3.42Zm-0.63,9.27a3.68,3.68,0,0,1-.18,1.17,1.4,1.4,0,0,1-1.32,1c-1.11,0-1.89-1.38-1.89-4.11,0-2.4.57-4.32,2-4.32a1.43,1.43,0,0,1,1.26,1.2,3.91,3.91,0,0,1,.15,1.08V15.6Zm6.63,5.4h3.93V11.88a5.84,5.84,0,0,1,.15-1.11A1.61,1.61,0,0,1,212,9.39c1.17,0,1.44,1.26,1.44,2.7V21h3.93V12.09c0-3.72-1.05-6-3.75-6a4,4,0,0,0-2,.51,4.58,4.58,0,0,0-1.26,1.26H210.3V0.24h-3.93V21ZM220.8,3.3v3h-1.74V9.12h1.74V16c0,2.31.45,3.42,1.26,4.2a4,4,0,0,0,2.82.93,9.26,9.26,0,0,0,2.4-.27l0-3.06a5.38,5.38,0,0,1-1,.09c-0.78,0-1.5-.42-1.5-2.13V9.12h2.88V6.33h-2.88v-4Zm7.8,17a6.46,6.46,0,0,0,3.36.84c3,0,5.19-1.62,5.19-4.62,0-1.68-.81-3.21-3-4.44-1.38-.81-1.71-1.17-1.71-1.83A1.29,1.29,0,0,1,233.94,9a4.07,4.07,0,0,1,2,.6l0.69-2.88a6.9,6.9,0,0,0-3-.66,4.52,4.52,0,0,0-4.83,4.62c0,1.35.57,2.88,3,4.23,1.29,0.75,1.71,1.23,1.71,2A1.32,1.32,0,0,1,232,18.24a5.49,5.49,0,0,1-2.64-.78Z" transform="translate(-0.53 -0.24)"/></g></g></g><path class="cls-1" d="M17.16,24.16L19,29.7a14.1,14.1,0,0,0,7-5.13l-3.27-2.38A16.22,16.22,0,0,1,17.16,24.16Z" transform="translate(-0.53 -0.24)"/><path class="cls-2" d="M14.61,24.36a16.45,16.45,0,0,1-2.56-.2l-1.8,5.54a14.13,14.13,0,0,0,8.72,0l-1.8-5.54A16.45,16.45,0,0,1,14.61,24.36Z" transform="translate(-0.53 -0.24)"/><path class="cls-1" d="M6.48,22.19L3.21,24.57a14.1,14.1,0,0,0,7,5.13L12,24.16A16.22,16.22,0,0,1,6.48,22.19Z" transform="translate(-0.53 -0.24)"/><path class="cls-3" d="M14.61,8.27a16.45,16.45,0,0,1,2.54.2l1.8-5.55a14.13,14.13,0,0,0-8.68,0l1.8,5.55A16.45,16.45,0,0,1,14.61,8.27Z" transform="translate(-0.53 -0.24)"/><path class="cls-4" d="M12.07,8.47l-1.8-5.55a14.1,14.1,0,0,0-7,5.1l3.29,2.39A16.22,16.22,0,0,1,12.07,8.47Z" transform="translate(-0.53 -0.24)"/><path class="cls-5" d="M6.52,10.41L3.24,8a14,14,0,0,0-2.7,8.26h0A16.42,16.42,0,0,1,6.52,10.41Z" transform="translate(-0.53 -0.24)"/><polygon class="cls-1" points="14.07 16.04 14.07 16.04 14.07 16.04 14.07 16.04"/><path class="cls-4" d="M22.69,10.41L26,8a14.1,14.1,0,0,0-7-5.1l-1.8,5.55A16.22,16.22,0,0,1,22.69,10.41Z" transform="translate(-0.53 -0.24)"/><polygon class="cls-1" points="14.07 16.04 14.07 16.04 14.07 16.04 14.07 16.04"/><path class="cls-5" d="M28.66,16.28h0A14,14,0,0,0,26,8l-3.29,2.39A16.42,16.42,0,0,1,28.66,16.28Z" transform="translate(-0.53 -0.24)"/><polygon class="cls-1" points="14.07 16.04 14.07 16.04 14.07 16.04 14.07 16.04"/><path class="cls-6" d="M0.53,16.28v0l0,0h0Z" transform="translate(-0.53 -0.24)"/><path class="cls-6" d="M0.53,16.31a14,14,0,0,0,2.67,8.25l3.27-2.38A16.42,16.42,0,0,1,.53,16.31Z" transform="translate(-0.53 -0.24)"/><path class="cls-6" d="M22.74,22.19L26,24.57a14,14,0,0,0,2.67-8.25A16.42,16.42,0,0,1,22.74,22.19Z" transform="translate(-0.53 -0.24)"/><path class="cls-6" d="M28.66,16.28l0,0v0h0Z" transform="translate(-0.53 -0.24)"/><path class="cls-7" d="M16.57,10.24a6.38,6.38,0,0,0-7.11,2.3l2.22,1.61a3.63,3.63,0,0,1,5.85,0l2.22-1.61A6.39,6.39,0,0,0,16.57,10.24Z" transform="translate(-0.53 -0.24)"/><path class="cls-8" d="M21,16.28a6.35,6.35,0,0,0-1.23-3.74l-2.22,1.61a3.62,3.62,0,0,1,.71,2.13v0a3.65,3.65,0,0,1-2.51,3.46l0.85,2.61A6.39,6.39,0,0,0,21,16.31v0Z" transform="translate(-0.53 -0.24)"/><path class="cls-8" d="M11.65,18.43A3.62,3.62,0,0,1,11,16.31v0a3.62,3.62,0,0,1,.71-2.13L9.46,12.54a6.35,6.35,0,0,0-1.23,3.74v0a6.39,6.39,0,0,0,4.4,6.07l0.85-2.61A3.65,3.65,0,0,1,11.65,18.43Z" transform="translate(-0.53 -0.24)"/><polygon class="cls-1" points="14.07 16.04 14.07 16.04 14.07 16.04 14.07 16.04"/><polygon class="cls-1" points="14.07 16.04 14.07 16.04 14.07 16.04 14.07 16.04"/><polygon class="cls-1" points="14.07 16.04 14.07 16.04 14.07 16.04 14.07 16.04"/></svg>