<?xml version="1.0" encoding="UTF-8" standalone="no"?>
<svg width="238px" height="31px" viewBox="0 0 238 31" version="1.1" xmlns="http://www.w3.org/2000/svg" xmlns:xlink="http://www.w3.org/1999/xlink">
    <!-- Generator: Sketch 3.7.2 (28276) - http://www.bohemiancoding.com/sketch -->
    <title>logo</title>
    <desc>Created with Sketch.</desc>
    <defs></defs>
    <g id="Symbols" stroke="none" stroke-width="1" fill="none" fill-rule="evenodd">
        <g id="Menu-&amp;-tabs/Menu-bar" transform="translate(-25.000000, -24.000000)">
            <g id="logo" transform="translate(25.000000, 24.000000)">
                <path d="M42.15,6.33 L46.17,19.92 C46.23,20.1 46.29,20.28 46.29,20.46 C46.29,20.67 46.2,20.82 46.08,21.09 C45.81,21.72 45.39,22.32 44.85,22.83 C44.25,23.37 43.59,23.82 42.9,24.06 L44.1,27.45 C44.7,27.27 46.2,26.58 47.43,25.14 C49.02,23.25 49.98,20.4 50.7,17.64 L53.7,6.33 L49.86,6.33 L48.63,14.01 C48.51,14.82 48.39,15.66 48.27,16.41 L48.21,16.41 C48.09,15.63 47.97,14.82 47.82,13.95 L46.38,6.33 L42.15,6.33 Z M60.27,6.09 C57.36,6.09 54.6,8.43 54.6,13.71 C54.6,18.48 56.7,21.24 60.21,21.24 C62.43,21.24 65.82,19.74 65.82,13.62 C65.82,9 63.72,6.09 60.27,6.09 L60.27,6.09 Z M60.24,9.06 C61.56,9.06 61.89,11.61 61.89,13.62 C61.89,15.78 61.56,18.24 60.3,18.24 C58.89,18.24 58.5,16.14 58.5,13.62 C58.5,11.61 58.8,9.06 60.24,9.06 L60.24,9.06 Z M78.78,6.33 L74.85,6.33 L74.85,15.69 C74.85,16.2 74.76,16.65 74.61,16.95 C74.43,17.43 74.01,17.94 73.35,17.94 C72.24,17.94 71.88,16.71 71.88,14.79 L71.88,6.33 L67.92,6.33 L67.92,15.21 C67.92,19.17 69.06,21.24 71.85,21.24 C73.35,21.24 74.55,20.43 75.24,19.44 L75.3,19.44 L75.51,21 L78.9,21 C78.84,19.62 78.78,18.09 78.78,16.53 L78.78,6.33 Z M81.57,21 L85.53,21 L85.53,13.56 C85.53,12.93 85.59,12.42 85.68,12.09 C86.13,10.56 87.24,9.99 88.08,9.99 C88.41,9.99 88.68,9.99 88.92,10.05 L88.92,6.15 C88.68,6.09 88.47,6.09 88.08,6.09 C87,6.09 85.83,6.9 85.17,8.46 L85.08,8.46 L84.87,6.33 L81.45,6.33 C81.51,7.68 81.57,9.27 81.57,10.74 L81.57,21 Z M90.63,26.76 L92.94,26.76 L92.94,19.56 L93,19.56 C93.39,20.37 94.17,21.24 95.52,21.24 C97.8,21.24 100.02,19.08 100.02,13.71 C100.02,8.94 98.34,6.24 95.82,6.24 C94.68,6.24 93.54,6.78 92.76,8.34 L92.7,8.34 L92.58,6.48 L90.51,6.48 C90.54,7.5 90.63,8.79 90.63,11.01 L90.63,26.76 Z M92.94,11.97 C92.94,11.58 92.94,11.22 93,10.86 C93.15,9.54 94.08,8.22 95.13,8.22 C96.96,8.22 97.68,10.74 97.68,13.74 C97.68,16.68 97.08,19.32 95.16,19.32 C94.53,19.32 93.48,18.93 93.03,16.86 C92.94,16.53 92.94,16.11 92.94,15.66 L92.94,11.97 Z M102.6,21 L104.91,21 L104.91,12.96 C104.91,12.48 104.94,12.03 105,11.64 C105.24,9.96 106.32,8.61 107.79,8.61 C107.97,8.61 108.12,8.61 108.27,8.64 L108.27,6.27 C108.12,6.27 107.97,6.24 107.79,6.24 C106.44,6.24 105.21,7.38 104.73,8.76 L104.67,8.76 L104.55,6.48 L102.48,6.48 C102.51,7.56 102.6,9 102.6,10.23 L102.6,21 Z M112.38,21 L112.38,6.48 L110.07,6.48 L110.07,21 L112.38,21 Z M111.18,1.23 C110.43,1.23 109.83,1.83 109.83,2.73 C109.83,3.63 110.4,4.23 111.15,4.23 C112.02,4.23 112.59,3.63 112.56,2.73 C112.56,1.83 112.02,1.23 111.18,1.23 L111.18,1.23 Z M114.36,6.48 L118.14,21 L120.21,21 L123.99,6.48 L121.71,6.48 L119.91,14.64 C119.7,15.75 119.46,16.98 119.31,18.18 L119.22,18.18 C119.04,16.92 118.8,15.63 118.59,14.64 L116.76,6.48 L114.36,6.48 Z M133.83,21 C133.68,20.07 133.68,18.81 133.68,17.7 L133.68,11.43 C133.68,8.16 132.42,6.24 129.51,6.24 C128.07,6.24 126.72,6.75 126.12,7.2 L126.63,8.82 C127.32,8.37 128.13,8.07 129.03,8.07 C130.86,8.07 131.34,9.42 131.34,11.37 L131.34,11.82 C128.07,11.85 125.16,13.47 125.16,17.1 C125.16,19.59 126.66,21.24 128.61,21.24 C129.84,21.24 130.86,20.58 131.49,19.47 L131.58,19.47 L131.73,21 L133.83,21 Z M131.4,16.44 C131.4,16.68 131.4,16.98 131.34,17.25 C131.07,18.69 130.2,19.44 129.18,19.44 C128.37,19.44 127.41,18.75 127.41,16.86 C127.41,13.71 130.2,13.5 131.4,13.5 L131.4,16.44 Z M143.7,18.87 C143.16,19.11 142.65,19.26 142.02,19.26 C139.89,19.26 138.6,17.22 138.6,13.83 C138.6,10.98 139.65,8.22 141.96,8.22 C142.71,8.22 143.31,8.46 143.61,8.61 L144.06,6.72 C143.64,6.48 142.8,6.27 142.02,6.27 C138.39,6.27 136.29,9.66 136.29,13.83 C136.29,18.63 138.42,21.18 141.6,21.18 C142.62,21.18 143.49,20.94 144,20.64 L143.7,18.87 Z M144.75,6.48 L148.41,19.89 C148.47,20.07 148.47,20.25 148.47,20.43 C148.47,20.64 148.44,20.79 148.32,21.15 C148.08,21.84 147.6,22.83 147,23.58 C146.34,24.42 145.62,25.05 144.96,25.41 L145.8,27.39 C146.31,27.15 147.39,26.46 148.41,25.17 C150.12,22.98 151.11,19.47 152.01,15.81 L154.38,6.48 L152.1,6.48 L150.39,14.85 C150.15,15.9 149.91,17.01 149.76,17.82 L149.7,17.82 C149.52,16.92 149.37,15.96 149.1,14.82 L147.18,6.48 L144.75,6.48 Z M160.05,21 L160.05,6.33 L156.12,6.33 L156.12,21 L160.05,21 Z M158.04,0.3 C156.96,0.3 156,1.11 156.03,2.43 C156,3.69 156.9,4.56 157.98,4.56 C159.18,4.56 160.08,3.69 160.05,2.43 C160.05,1.11 159.18,0.3 158.04,0.3 L158.04,0.3 Z M162.81,21 L166.74,21 L166.74,12.06 C166.74,11.49 166.83,11.01 166.95,10.71 C167.22,9.84 167.76,9.39 168.42,9.39 C169.56,9.39 169.86,10.56 169.86,11.82 L169.86,21 L173.79,21 L173.79,11.58 C173.79,8.31 172.68,6.09 169.89,6.09 C168.36,6.09 167.1,6.84 166.32,8.01 L166.26,8.01 L166.08,6.33 L162.69,6.33 C162.72,7.71 162.81,9.12 162.81,10.74 L162.81,21 Z M175.71,20.34 C176.4,20.85 177.84,21.18 179.07,21.18 C182.1,21.18 184.26,19.56 184.26,16.56 C184.26,14.88 183.45,13.35 181.29,12.12 C179.91,11.31 179.58,10.95 179.58,10.29 C179.58,9.63 180.06,9.03 181.05,9.03 C181.83,9.03 182.52,9.3 183.09,9.63 L183.78,6.75 C183,6.39 182.04,6.09 180.81,6.09 C177.87,6.09 175.98,8.07 175.98,10.71 C175.98,12.06 176.55,13.59 178.95,14.94 C180.24,15.69 180.66,16.17 180.66,16.92 C180.66,17.79 180.09,18.24 179.07,18.24 C178.08,18.24 177,17.82 176.43,17.46 L175.71,20.34 Z M190.2,21 L190.2,6.33 L186.27,6.33 L186.27,21 L190.2,21 Z M188.19,0.3 C187.11,0.3 186.15,1.11 186.18,2.43 C186.15,3.69 187.05,4.56 188.13,4.56 C189.33,4.56 190.23,3.69 190.2,2.43 C190.2,1.11 189.33,0.3 188.19,0.3 L188.19,0.3 Z M200.37,6.33 L200.16,7.8 L200.1,7.8 C199.53,6.69 198.57,6.09 197.4,6.09 C194.67,6.09 192.45,8.91 192.45,13.8 C192.45,17.31 193.74,20.91 197.04,20.91 C198.15,20.91 199.17,20.37 199.68,19.44 L199.74,19.44 L199.74,20.34 C199.74,22.59 198.96,23.91 196.98,23.91 C195.84,23.91 194.91,23.61 194.16,23.28 L193.44,26.31 C194.49,26.76 195.75,27 197.1,27 C199.26,27 200.79,26.4 201.87,25.38 C203.07,24.24 203.64,22.5 203.64,19.35 L203.64,10.98 C203.64,9.21 203.73,7.65 203.79,6.33 L200.37,6.33 Z M199.74,15.6 C199.74,15.99 199.68,16.44 199.56,16.77 C199.26,17.55 198.75,17.82 198.24,17.82 C197.13,17.82 196.35,16.44 196.35,13.71 C196.35,11.31 196.92,9.39 198.33,9.39 C198.99,9.39 199.41,9.96 199.59,10.59 C199.68,10.89 199.74,11.28 199.74,11.67 L199.74,15.6 Z M206.37,21 L210.3,21 L210.3,11.88 C210.3,11.55 210.39,11.01 210.45,10.77 C210.75,9.78 211.32,9.39 211.98,9.39 C213.15,9.39 213.42,10.65 213.42,12.09 L213.42,21 L217.35,21 L217.35,12.09 C217.35,8.37 216.3,6.09 213.6,6.09 C212.88,6.09 212.19,6.27 211.62,6.6 C211.14,6.93 210.69,7.35 210.36,7.86 L210.3,7.86 L210.3,0.24 L206.37,0.24 L206.37,21 Z M220.8,3.3 L220.8,6.33 L219.06,6.33 L219.06,9.12 L220.8,9.12 L220.8,16.05 C220.8,18.36 221.25,19.47 222.06,20.25 C222.75,20.91 223.74,21.18 224.88,21.18 C225.93,21.18 226.74,21.06 227.28,20.91 L227.25,17.85 C226.92,17.91 226.62,17.94 226.23,17.94 C225.45,17.94 224.73,17.52 224.73,15.81 L224.73,9.12 L227.61,9.12 L227.61,6.33 L224.73,6.33 L224.73,2.37 L220.8,3.3 Z M228.6,20.34 C229.29,20.85 230.73,21.18 231.96,21.18 C234.99,21.18 237.15,19.56 237.15,16.56 C237.15,14.88 236.34,13.35 234.18,12.12 C232.8,11.31 232.47,10.95 232.47,10.29 C232.47,9.63 232.95,9.03 233.94,9.03 C234.72,9.03 235.41,9.3 235.98,9.63 L236.67,6.75 C235.89,6.39 234.93,6.09 233.7,6.09 C230.76,6.09 228.87,8.07 228.87,10.71 C228.87,12.06 229.44,13.59 231.84,14.94 C233.13,15.69 233.55,16.17 233.55,16.92 C233.55,17.79 232.98,18.24 231.96,18.24 C230.97,18.24 229.89,17.82 229.32,17.46 L228.6,20.34 Z" id="yourprivacyinsights" fill="#000000"></path>
                <g id="Logo" transform="translate(0.000000, 2.000000)">
                    <g id="Logo_logo-horizontal">
                        <g id="Layer_1">
                            <path d="M17.1006452,22.386129 L18.9014516,27.928871 C21.7342677,27.0013726 24.2003473,25.2001193 25.9456452,22.7837097 L22.6714516,20.4075806 C20.9513846,21.4027589 19.063097,22.0734102 17.1006452,22.386129 L17.1006452,22.386129 Z" id="Shape" fill="#81BB41"></path>
                            <path d="M14.5420968,22.5872581 C13.685311,22.5869454 12.8298589,22.5196978 11.9835484,22.386129 L10.1827419,27.928871 C13.0163264,28.8478793 16.0678671,28.8478793 18.9014516,27.928871 L17.1006452,22.386129 C16.2543347,22.5196978 15.3988826,22.5869454 14.5420968,22.5872581 L14.5420968,22.5872581 Z" id="Shape" fill="#97D34A"></path>
                            <path d="M6.41274194,20.4216129 L3.13854839,22.7977419 C4.88384626,25.2141515 7.34992588,27.0154049 10.1827419,27.9429032 L11.9835484,22.4001613 C10.0210966,22.0874424 8.13280895,21.4167912 6.41274194,20.4216129 L6.41274194,20.4216129 Z" id="Shape" fill="#81BB41"></path>
                            <path d="M14.5420968,6.5016129 C15.3925141,6.50136783 16.2416709,6.56704846 17.0819355,6.69806452 L18.8827419,1.15064516 C16.0606676,0.239708383 13.0235259,0.239708383 10.2014516,1.15064516 L12.0022581,6.69806452 C12.8425226,6.56704846 13.6916794,6.50136783 14.5420968,6.5016129 L14.5420968,6.5016129 Z" id="Shape" fill="#52C5D8"></path>
                            <path d="M12.0022581,6.69806452 L10.2014516,1.15064516 C7.3852502,2.07091262 4.93041402,3.85476024 3.18532258,6.24903226 L6.45951613,8.63919355 C8.17360326,7.66030171 10.0519619,7.00247991 12.0022581,6.69806452 L12.0022581,6.69806452 Z" id="Shape" fill="#3BAFC9"></path>
                            <path d="M6.45951613,8.63919355 L3.18532258,6.24903226 C1.42951071,8.64266183 0.478041581,11.5314597 0.467741935,14.5 L0.467741935,14.5 C1.9242875,12.0608969 3.98882366,10.0414872 6.45951613,8.63919355 L6.45951613,8.63919355 Z" id="Shape" fill="#2999BA"></path>
                            <path d="M22.6293548,8.63919355 L25.9035484,6.24903226 C24.158457,3.85476024 21.7036208,2.07091262 18.8874194,1.15064516 L17.0819355,6.69806452 C19.0338445,7.00192909 20.9138354,7.65976737 22.6293548,8.63919355 L22.6293548,8.63919355 Z" id="Shape" fill="#3BAFC9"></path>
                            <path d="M28.6024194,14.5 L28.6024194,14.5 C28.5991609,11.5282247 27.6525062,8.63421294 25.898871,6.235 L22.6246774,8.62516129 C25.0919747,10.0332818 27.1516726,12.0575232 28.6024194,14.5 L28.6024194,14.5 Z" id="Shape" fill="#2999BA"></path>
                            <polygon id="Shape" fill="#3DACA3" points="28.4971774 14.59 28.4971774 14.5 28.4971774 14.5"></polygon>
                            <path d="M22.676129,20.4216129 L25.9503226,22.7977419 C27.6920851,20.3976994 28.6287217,17.5075532 28.6258065,14.5420968 C27.1834756,16.9827532 25.1337227,19.0083345 22.676129,20.4216129 L22.676129,20.4216129 Z" id="Shape" fill="#3DACA3"></path>
                            <polygon id="Shape" fill="#3DACA3" points="0.348467742 14.5 0.348467742 14.56 0.348467742 14.5"></polygon>
                            <path d="M0.467741935,14.5420968 C0.464826698,17.5075532 1.40146332,20.3976994 3.14322581,22.7977419 L6.41741935,20.4216129 C3.95982571,19.0083345 1.91007283,16.9827532 0.467741935,14.5420968 L0.467741935,14.5420968 Z" id="Shape" fill="#3DACA3"></path>
                            <path d="M14.5420968,10.9030645 C14.1640231,10.9038966 13.7884068,10.9638689 13.428871,11.0808065 L12.5775806,8.46612903 C13.8547495,8.05345105 15.2294441,8.05345105 16.5066129,8.46612903 L15.6553226,11.0808065 C15.2957867,10.9638689 14.9201705,10.9038966 14.5420968,10.9030645 L14.5420968,10.9030645 Z" id="Shape" fill="#D1544E"></path>
                            <path d="M15.66,11.0808065 L16.5112903,8.46612903 C17.7853386,8.87821616 18.8978632,9.67988827 19.6919355,10.7580645 L17.4701613,12.3717742 C17.015564,11.7638256 16.3828644,11.312598 15.66,11.0808065 L15.66,11.0808065 Z" id="Shape" fill="#D1544E"></path>
                            <path d="M17.4701613,12.3858065 L19.6919355,10.7580645 C20.4895169,11.8430898 20.9219118,13.1533774 20.9267742,14.5 L18.181129,14.5 C18.1725544,13.7380064 17.9237526,12.9981484 17.4701613,12.3858065 L17.4701613,12.3858065 Z" id="Shape" fill="#EB5F54"></path>
                            <path d="M11.6140323,12.3858065 L9.39225806,10.7580645 C10.1854357,9.67388521 11.2999341,8.86706037 12.5775806,8.45209677 L13.428871,11.0667742 C12.7005434,11.3052034 12.0656455,11.7666498 11.6140323,12.3858065 L11.6140323,12.3858065 Z" id="Shape" fill="#D1544E"></path>
                            <path d="M11.6140323,12.3858065 C11.160441,12.9981484 10.9116391,13.7380064 10.9030645,14.5 L8.15741935,14.5 C8.16228177,13.1533774 8.59467668,11.8430898 9.39225806,10.7580645 L11.6140323,12.3858065 Z" id="Shape" fill="#EB5F54"></path>
                            <path d="M10.9030645,14.5420968 C10.9025038,15.302582 11.1414382,16.0439332 11.5859677,16.6609677 L9.35483871,18.2746774 C8.56724963,17.1862363 8.14477613,15.876241 8.14806452,14.5327419 C8.1513529,13.1892429 8.14806452,14.5327419 8.14806452,14.5046774 L10.8937097,14.5046774 C15.8283871,0.467741935 10.9030645,14.5327419 10.9030645,14.5420968 L10.9030645,14.5420968 Z" id="Shape" fill="#EB5F54"></path>
                            <path d="M18.181129,14.5420968 C0.467741935,0.467741935 18.181129,14.5420968 18.181129,14.5140323 L20.9267742,14.5140323 C35.8945161,0.467741935 20.9267742,14.5140323 20.9267742,14.5420968 C20.9300626,15.8855958 20.5075891,17.1955912 19.72,18.2840323 L17.4982258,16.6703226 C17.9446303,16.0506972 18.1836599,15.3057761 18.181129,14.5420968 L18.181129,14.5420968 Z" id="Shape" fill="#EB5F54"></path>
                            <path d="M17.4982258,16.6609677 L19.72,18.2746774 C18.9279148,19.3731762 17.807719,20.1920328 16.5206452,20.6133871 L15.6693548,17.9987097 C16.4053592,17.7579135 17.0458022,17.2894565 17.4982258,16.6609677 L17.4982258,16.6609677 Z" id="Shape" fill="#EB5F54"></path>
                            <path d="M13.4101613,17.9987097 L12.558871,20.6133871 C11.2717971,20.1920328 10.1516013,19.3731762 9.35951613,18.2746774 L11.5812903,16.6609677 C12.033714,17.2894565 12.6741569,17.7579135 13.4101613,17.9987097 L13.4101613,17.9987097 Z" id="Shape" fill="#EB5F54"></path>
                        </g>
                    </g>
                </g>
            </g>
        </g>
    </g>
</svg>