<?xml version="1.0" encoding="utf-8"?>
<!-- Generator: Adobe Illustrator 19.2.1, SVG Export Plug-In . SVG Version: 6.00 Build 0)  -->
<svg version="1.1" id="Layer_1" xmlns="http://www.w3.org/2000/svg" xmlns:xlink="http://www.w3.org/1999/xlink" x="0px" y="0px"
	 viewBox="0 0 238 31" style="enable-background:new 0 0 238 31;" xml:space="preserve">
<style type="text/css">
	.st0{fill:#FFFFFF;}
	.st1{fill:#81BB41;}
	.st2{fill:#97D34A;}
	.st3{fill:#52C5D8;}
	.st4{fill:#3BAFC9;}
	.st5{fill:#2999BA;}
	.st6{fill:#3DACA3;}
	.st7{fill:#D1544E;}
	.st8{fill:#EB5F54;}
</style>
<title>logo</title>
<desc>Created with Sketch.</desc>
<g id="Symbols">
	<g id="Menu-_x26_-tabs_x2F_Menu-bar" transform="translate(-25.000000, -24.000000)">
		<g id="logo" transform="translate(25.000000, 24.000000)">
			<path id="yourprivacyinsights" class="st0" d="M42.2,6.3l4,13.6c0.1,0.2,0.1,0.4,0.1,0.5c0,0.2-0.1,0.4-0.2,0.6
				c-0.3,0.6-0.7,1.2-1.2,1.7c-0.6,0.5-1.3,1-1.9,1.2l1.2,3.4c0.6-0.2,2.1-0.9,3.3-2.3c1.6-1.9,2.5-4.7,3.3-7.5l3-11.3h-3.8L48.6,14
				c-0.1,0.8-0.2,1.6-0.4,2.4h-0.1c-0.1-0.8-0.2-1.6-0.4-2.5l-1.4-7.6H42.2z M60.3,6.1c-2.9,0-5.7,2.3-5.7,7.6
				c0,4.8,2.1,7.5,5.6,7.5c2.2,0,5.6-1.5,5.6-7.6C65.8,9,63.7,6.1,60.3,6.1L60.3,6.1z M60.2,9.1c1.3,0,1.6,2.5,1.6,4.6
				c0,2.2-0.3,4.6-1.6,4.6c-1.4,0-1.8-2.1-1.8-4.6C58.5,11.6,58.8,9.1,60.2,9.1L60.2,9.1z M78.8,6.3h-3.9v9.4c0,0.5-0.1,1-0.2,1.3
				c-0.2,0.5-0.6,1-1.3,1c-1.1,0-1.5-1.2-1.5-3.2V6.3h-4v8.9c0,4,1.1,6,3.9,6c1.5,0,2.7-0.8,3.4-1.8h0.1l0.2,1.6h3.4
				c-0.1-1.4-0.1-2.9-0.1-4.5V6.3z M81.6,21h4v-7.4c0-0.6,0.1-1.1,0.2-1.5c0.4-1.5,1.6-2.1,2.4-2.1c0.3,0,0.6,0,0.8,0.1V6.2
				c-0.2-0.1-0.4-0.1-0.8-0.1c-1.1,0-2.2,0.8-2.9,2.4h-0.1l-0.2-2.1h-3.4c0.1,1.3,0.1,2.9,0.1,4.4V21z M90.6,26.8h2.3v-7.2H93
				c0.4,0.8,1.2,1.7,2.5,1.7c2.3,0,4.5-2.2,4.5-7.5c0-4.8-1.7-7.5-4.2-7.5c-1.1,0-2.3,0.5-3.1,2.1h-0.1l-0.1-1.9h-2.1
				c0,1,0.1,2.3,0.1,4.5V26.8z M92.9,12c0-0.4,0-0.8,0.1-1.1c0.2-1.3,1.1-2.6,2.1-2.6c1.8,0,2.6,2.5,2.6,5.5c0,2.9-0.6,5.6-2.5,5.6
				c-0.6,0-1.7-0.4-2.1-2.5c-0.1-0.3-0.1-0.8-0.1-1.2V12z M102.6,21h2.3v-8c0-0.5,0-0.9,0.1-1.3c0.2-1.7,1.3-3,2.8-3
				c0.2,0,0.3,0,0.5,0V6.3c-0.1,0-0.3,0-0.5,0c-1.3,0-2.6,1.1-3.1,2.5h-0.1l-0.1-2.3h-2.1c0,1.1,0.1,2.5,0.1,3.7V21z M112.4,21V6.5
				h-2.3V21H112.4z M111.2,1.2c-0.8,0-1.3,0.6-1.3,1.5s0.6,1.5,1.3,1.5c0.9,0,1.4-0.6,1.4-1.5C112.6,1.8,112,1.2,111.2,1.2
				L111.2,1.2z M114.4,6.5l3.8,14.5h2.1L124,6.5h-2.3l-1.8,8.2c-0.2,1.1-0.5,2.3-0.6,3.5h-0.1c-0.2-1.3-0.4-2.6-0.6-3.5l-1.8-8.2
				H114.4z M133.8,21c-0.2-0.9-0.2-2.2-0.2-3.3v-6.3c0-3.3-1.3-5.2-4.2-5.2c-1.4,0-2.8,0.5-3.4,1l0.5,1.6c0.7-0.4,1.5-0.8,2.4-0.8
				c1.8,0,2.3,1.4,2.3,3.3v0.4c-3.3,0-6.2,1.7-6.2,5.3c0,2.5,1.5,4.1,3.4,4.1c1.2,0,2.2-0.7,2.9-1.8h0.1l0.1,1.5H133.8z M131.4,16.4
				c0,0.2,0,0.5-0.1,0.8c-0.3,1.4-1.1,2.2-2.2,2.2c-0.8,0-1.8-0.7-1.8-2.6c0-3.2,2.8-3.4,4-3.4V16.4z M143.7,18.9
				c-0.5,0.2-1.1,0.4-1.7,0.4c-2.1,0-3.4-2-3.4-5.4c0-2.9,1-5.6,3.4-5.6c0.8,0,1.3,0.2,1.6,0.4l0.4-1.9c-0.4-0.2-1.3-0.4-2-0.4
				c-3.6,0-5.7,3.4-5.7,7.6c0,4.8,2.1,7.4,5.3,7.4c1,0,1.9-0.2,2.4-0.5L143.7,18.9z M144.8,6.5l3.7,13.4c0.1,0.2,0.1,0.4,0.1,0.5
				c0,0.2,0,0.4-0.1,0.7c-0.2,0.7-0.7,1.7-1.3,2.4c-0.7,0.8-1.4,1.5-2,1.8l0.8,2c0.5-0.2,1.6-0.9,2.6-2.2c1.7-2.2,2.7-5.7,3.6-9.4
				l2.4-9.3h-2.3l-1.7,8.4c-0.2,1-0.5,2.2-0.6,3h-0.1c-0.2-0.9-0.3-1.9-0.6-3l-1.9-8.3H144.8z M160.1,21V6.3h-3.9V21H160.1z
				 M158,0.3c-1.1,0-2,0.8-2,2.1c0,1.3,0.9,2.1,1.9,2.1c1.2,0,2.1-0.9,2.1-2.1C160.1,1.1,159.2,0.3,158,0.3L158,0.3z M162.8,21h3.9
				v-8.9c0-0.6,0.1-1.1,0.2-1.4c0.3-0.9,0.8-1.3,1.5-1.3c1.1,0,1.4,1.2,1.4,2.4V21h3.9v-9.4c0-3.3-1.1-5.5-3.9-5.5
				c-1.5,0-2.8,0.8-3.6,1.9h-0.1l-0.2-1.7h-3.4c0,1.4,0.1,2.8,0.1,4.4V21z M175.7,20.3c0.7,0.5,2.1,0.8,3.4,0.8c3,0,5.2-1.6,5.2-4.6
				c0-1.7-0.8-3.2-3-4.4c-1.4-0.8-1.7-1.2-1.7-1.8s0.5-1.3,1.5-1.3c0.8,0,1.5,0.3,2,0.6l0.7-2.9c-0.8-0.4-1.7-0.7-3-0.7
				c-2.9,0-4.8,2-4.8,4.6c0,1.4,0.6,2.9,3,4.2c1.3,0.8,1.7,1.2,1.7,2c0,0.9-0.6,1.3-1.6,1.3c-1,0-2.1-0.4-2.6-0.8L175.7,20.3z
				 M190.2,21V6.3h-3.9V21H190.2z M188.2,0.3c-1.1,0-2,0.8-2,2.1c0,1.3,0.9,2.1,2,2.1c1.2,0,2.1-0.9,2.1-2.1
				C190.2,1.1,189.3,0.3,188.2,0.3L188.2,0.3z M200.4,6.3l-0.2,1.5h-0.1c-0.6-1.1-1.5-1.7-2.7-1.7c-2.7,0-4.9,2.8-4.9,7.7
				c0,3.5,1.3,7.1,4.6,7.1c1.1,0,2.1-0.5,2.6-1.5h0.1v0.9c0,2.2-0.8,3.6-2.8,3.6c-1.1,0-2.1-0.3-2.8-0.6l-0.7,3
				c1.1,0.5,2.3,0.7,3.7,0.7c2.2,0,3.7-0.6,4.8-1.6c1.2-1.1,1.8-2.9,1.8-6V11c0-1.8,0.1-3.3,0.1-4.6H200.4z M199.7,15.6
				c0,0.4-0.1,0.8-0.2,1.2c-0.3,0.8-0.8,1-1.3,1c-1.1,0-1.9-1.4-1.9-4.1c0-2.4,0.6-4.3,2-4.3c0.7,0,1.1,0.6,1.3,1.2
				c0.1,0.3,0.2,0.7,0.2,1.1V15.6z M206.4,21h3.9v-9.1c0-0.3,0.1-0.9,0.1-1.1c0.3-1,0.9-1.4,1.5-1.4c1.2,0,1.4,1.3,1.4,2.7V21h3.9
				v-8.9c0-3.7-1.1-6-3.8-6c-0.7,0-1.4,0.2-2,0.5c-0.5,0.3-0.9,0.8-1.3,1.3h-0.1V0.2h-3.9V21z M220.8,3.3v3h-1.7v2.8h1.7V16
				c0,2.3,0.4,3.4,1.3,4.2c0.7,0.7,1.7,0.9,2.8,0.9c1,0,1.9-0.1,2.4-0.3l0-3.1c-0.3,0.1-0.6,0.1-1,0.1c-0.8,0-1.5-0.4-1.5-2.1V9.1
				h2.9V6.3h-2.9v-4L220.8,3.3z M228.6,20.3c0.7,0.5,2.1,0.8,3.4,0.8c3,0,5.2-1.6,5.2-4.6c0-1.7-0.8-3.2-3-4.4
				c-1.4-0.8-1.7-1.2-1.7-1.8s0.5-1.3,1.5-1.3c0.8,0,1.5,0.3,2,0.6l0.7-2.9c-0.8-0.4-1.7-0.7-3-0.7c-2.9,0-4.8,2-4.8,4.6
				c0,1.4,0.6,2.9,3,4.2c1.3,0.8,1.7,1.2,1.7,2c0,0.9-0.6,1.3-1.6,1.3c-1,0-2.1-0.4-2.6-0.8L228.6,20.3z"/>
		</g>
	</g>
</g>
<g>
	<polygon class="st0" points="23.8,25.1 5.4,24.2 0.6,16.3 6.2,7.8 22.9,7 28.7,16.3 	"/>
	<path class="st1" d="M17.2,24.2l1.8,5.5c2.9-0.9,5.3-2.7,7-5.1l-3.3-2.4C21,23.2,19.2,23.8,17.2,24.2z"/>
	<path class="st2" d="M14.6,24.4c-0.9,0-1.7-0.1-2.6-0.2l-1.8,5.5c1.4,0.4,2.8,0.7,4.4,0.7s3-0.2,4.4-0.7l-1.8-5.5
		C16.3,24.3,15.5,24.4,14.6,24.4z"/>
	<path class="st1" d="M6.5,22.2l-3.3,2.4c1.7,2.4,4.2,4.2,7,5.1l1.8-5.5C10,23.8,8.2,23.2,6.5,22.2z"/>
	<path class="st3" d="M14.6,8.3c0.9,0,1.7,0.1,2.5,0.2l1.8-5.5c-1.4-0.4-2.8-0.7-4.3-0.7s-3,0.2-4.3,0.7l1.8,5.5
		C12.9,8.3,13.7,8.3,14.6,8.3z"/>
	<path class="st4" d="M12.1,8.5l-1.8-5.5C7.4,3.8,5,5.7,3.2,8l3.3,2.4C8.2,9.5,10.1,8.8,12.1,8.5z"/>
	<path class="st5" d="M6.5,10.4L3.2,8c-1.7,2.3-2.7,5.2-2.7,8.3h0C2,13.8,4.1,11.8,6.5,10.4z"/>
	<polygon class="st1" points="14.6,16.3 14.6,16.3 14.6,16.3 	"/>
	<path class="st4" d="M22.7,10.4L26,8c-1.7-2.4-4.2-4.2-7-5.1l-1.8,5.5C19.1,8.8,21,9.5,22.7,10.4z"/>
	<polygon class="st1" points="14.6,16.3 14.6,16.3 14.6,16.3 	"/>
	<path class="st5" d="M28.7,16.3L28.7,16.3c0-3.1-1-5.9-2.7-8.3l-3.3,2.4C25.2,11.8,27.2,13.8,28.7,16.3z"/>
	<polygon class="st1" points="14.6,16.3 14.6,16.3 14.6,16.3 	"/>
	<g>
		<path class="st6" d="M0.5,16.3C0.5,16.3,0.5,16.3,0.5,16.3C0.5,16.3,0.5,16.3,0.5,16.3L0.5,16.3z"/>
		<path class="st6" d="M0.5,16.3c0,3.1,1,5.9,2.7,8.3l3.3-2.4C4,20.8,2,18.7,0.5,16.3z"/>
	</g>
	<g>
		<path class="st6" d="M22.7,22.2l3.3,2.4c1.7-2.3,2.7-5.2,2.7-8.3C27.2,18.7,25.2,20.8,22.7,22.2z"/>
		<path class="st6" d="M28.7,16.3C28.7,16.3,28.7,16.3,28.7,16.3C28.7,16.3,28.7,16.3,28.7,16.3L28.7,16.3z"/>
	</g>
	<path class="st7" d="M16.6,10.2c-0.6-0.2-1.3-0.3-2-0.3s-1.3,0.1-2,0.3c-1.3,0.4-2.4,1.2-3.2,2.3l2.2,1.6c0.4-0.6,1.1-1.1,1.8-1.3
		c0.4-0.1,0.7-0.2,1.1-0.2s0.8,0.1,1.1,0.2c0.7,0.2,1.4,0.7,1.8,1.3l2.2-1.6C19,11.5,17.9,10.7,16.6,10.2z"/>
	<path class="st8" d="M21,16.3c0-1.4-0.5-2.7-1.2-3.7l-2.2,1.6c0.4,0.6,0.7,1.3,0.7,2.1c0,0,0,0,0,0c0,0.8-0.3,1.5-0.7,2.1
		c-0.4,0.6-1.1,1.1-1.8,1.3l0.8,2.6c1.3-0.4,2.4-1.3,3.2-2.3C20.5,19,21,17.7,21,16.3C21,16.3,21,16.3,21,16.3z"/>
	<path class="st8" d="M11.7,18.4c-0.4-0.6-0.7-1.3-0.7-2.1c0,0,0,0,0,0c0-0.8,0.3-1.5,0.7-2.1l-2.2-1.6c-0.8,1-1.2,2.3-1.2,3.7
		c0,0,0,0,0,0c0,1.4,0.4,2.7,1.2,3.7c0.8,1.1,1.9,1.9,3.2,2.3l0.8-2.6C12.7,19.5,12.1,19.1,11.7,18.4z"/>
	<polygon class="st1" points="14.6,16.3 14.6,16.3 14.6,16.3 	"/>
	<polygon class="st1" points="14.6,16.3 14.6,16.3 14.6,16.3 	"/>
	<polygon class="st1" points="14.6,16.3 14.6,16.3 14.6,16.3 	"/>
</g>
</svg>
