<?xml version="1.0" encoding="utf-8"?>
<!-- Generator: Adobe Illustrator 19.2.1, SVG Export Plug-In . SVG Version: 6.00 Build 0)  -->
<svg version="1.1" id="Layer_1" xmlns="http://www.w3.org/2000/svg" xmlns:xlink="http://www.w3.org/1999/xlink" x="0px" y="0px"
	 viewBox="0 0 28.1 28.1" style="enable-background:new 0 0 28.1 28.1;" xml:space="preserve">
<style type="text/css">
	.st0{fill:#FFFFFF;}
	.st1{fill:#81BB41;}
	.st2{fill:#97D34A;}
	.st3{fill:#52C5D8;}
	.st4{fill:#3BAFC9;}
	.st5{fill:#2999BA;}
	.st6{fill:#3DACA3;}
	.st7{fill:#D1544E;}
	.st8{fill:#EB5F54;}
</style>
<title>logo</title>
<desc>Created with Sketch.</desc>
<g>
	<polygon class="st0" points="23.3,22.9 4.9,21.9 0,14 5.7,5.5 22.4,4.8 28.1,14 	"/>
	<path class="st1" d="M16.6,21.9l1.8,5.5c2.9-0.9,5.3-2.7,7-5.1l-3.3-2.4C20.5,20.9,18.6,21.6,16.6,21.9z"/>
	<path class="st2" d="M14.1,22.1c-0.9,0-1.7-0.1-2.6-0.2l-1.8,5.5c1.4,0.4,2.8,0.7,4.4,0.7s3-0.2,4.4-0.7l-1.8-5.5
		C15.8,22,14.9,22.1,14.1,22.1z"/>
	<path class="st1" d="M5.9,19.9l-3.3,2.4c1.7,2.4,4.2,4.2,7,5.1l1.8-5.5C9.5,21.6,7.6,20.9,5.9,19.9z"/>
	<path class="st3" d="M14.1,6c0.9,0,1.7,0.1,2.5,0.2l1.8-5.5C17,0.2,15.6,0,14.1,0s-3,0.2-4.3,0.7l1.8,5.5C12.4,6.1,13.2,6,14.1,6z"
		/>
	<path class="st4" d="M11.5,6.2L9.7,0.7c-2.8,0.9-5.3,2.7-7,5.1L6,8.2C7.7,7.2,9.5,6.5,11.5,6.2z"/>
	<path class="st5" d="M6,8.2L2.7,5.8C1,8.1,0,11,0,14h0C1.5,11.6,3.5,9.6,6,8.2z"/>
	<polygon class="st1" points="14.1,14 14.1,14 14.1,14 	"/>
	<path class="st4" d="M22.2,8.2l3.3-2.4c-1.7-2.4-4.2-4.2-7-5.1l-1.8,5.5C18.6,6.5,20.5,7.2,22.2,8.2z"/>
	<polygon class="st1" points="14.1,14 14.1,14 14.1,14 	"/>
	<path class="st5" d="M28.1,14L28.1,14c0-3.1-1-5.9-2.7-8.3l-3.3,2.4C24.6,9.6,26.7,11.6,28.1,14z"/>
	<polygon class="st1" points="14.1,14 14.1,14 14.1,14 	"/>
	<g>
		<path class="st6" d="M0,14C0,14.1,0,14.1,0,14C0,14.1,0,14.1,0,14L0,14z"/>
		<path class="st6" d="M0,14.1c0,3.1,1,5.9,2.7,8.3l3.3-2.4C3.5,18.5,1.4,16.5,0,14.1z"/>
	</g>
	<g>
		<path class="st6" d="M22.2,19.9l3.3,2.4c1.7-2.3,2.7-5.2,2.7-8.3C26.7,16.5,24.7,18.5,22.2,19.9z"/>
		<path class="st6" d="M28.1,14C28.1,14.1,28.1,14.1,28.1,14C28.1,14.1,28.1,14.1,28.1,14L28.1,14z"/>
	</g>
	<path class="st7" d="M16,8c-0.6-0.2-1.3-0.3-2-0.3s-1.3,0.1-2,0.3c-1.3,0.4-2.4,1.2-3.2,2.3l2.2,1.6c0.4-0.6,1.1-1.1,1.8-1.3
		c0.4-0.1,0.7-0.2,1.1-0.2s0.8,0.1,1.1,0.2c0.7,0.2,1.4,0.7,1.8,1.3l2.2-1.6C18.4,9.2,17.3,8.4,16,8z"/>
	<path class="st8" d="M20.5,14c0-1.4-0.5-2.7-1.2-3.7L17,11.9c0.4,0.6,0.7,1.3,0.7,2.1c0,0,0,0,0,0c0,0.8-0.3,1.5-0.7,2.1
		c-0.4,0.6-1.1,1.1-1.8,1.3l0.8,2.6c1.3-0.4,2.4-1.3,3.2-2.3C20,16.8,20.5,15.5,20.5,14C20.5,14.1,20.5,14.1,20.5,14z"/>
	<path class="st8" d="M11.1,16.2c-0.4-0.6-0.7-1.3-0.7-2.1c0,0,0,0,0,0c0-0.8,0.3-1.5,0.7-2.1l-2.2-1.6c-0.8,1-1.2,2.3-1.2,3.7
		c0,0,0,0,0,0c0,1.4,0.4,2.7,1.2,3.7c0.8,1.1,1.9,1.9,3.2,2.3l0.8-2.6C12.2,17.3,11.6,16.8,11.1,16.2z"/>
	<polygon class="st1" points="14.1,14 14.1,14 14.1,14 	"/>
	<polygon class="st1" points="14.1,14 14.1,14 14.1,14 	"/>
	<polygon class="st1" points="14.1,14 14.1,14 14.1,14 	"/>
</g>
</svg>
