<svg id="Layer_1" data-name="Layer 1" xmlns="http://www.w3.org/2000/svg" viewBox="0 0 600 600"><defs><style>.cls-1{fill:#eb5f54;}</style></defs><title>warning-icons</title><path class="cls-1" d="M391.13,80L520,208.87V391.13L391.13,520H208.87L80,391.13V208.87L208.87,80H391.13m12.43-30H196.45L50,196.45V403.55L196.45,550H403.55L550,403.55V196.45L403.55,50h0Z"/><path class="cls-1" d="M274.16,404.2c0-15.77,10.95-27.15,25.84-27.15,15.77,0,25.84,11.39,25.84,27.15,0,15.33-10.07,27.15-25.84,27.15C284.67,431.35,274.16,419.53,274.16,404.2Zm10.95-62.63L279,131.35h42l-6.13,210.22H285.11Z"/></svg>